<svg xmlns="http://www.w3.org/2000/svg" width="16" height="12" viewBox="0 0 16 12" fill="none">
  <path d="M 0 5.25 C -0.414 5.25 -0.75 5.586 -0.75 6 C -0.75 6.414 -0.414 6.75 0 6.75 L 0 6 L 0 5.25 Z M 16 6 L 16.53 6.53 C 16.823 6.237 16.823 5.763 16.53 5.47 L 16 6 Z M 10.53 -0.53 C 10.237 -0.823 9.763 -0.823 9.47 -0.53 C 9.177 -0.237 9.177 0.237 9.47 0.53 L 10 0 L 10.53 -0.53 Z M 9.47 11.47 C 9.177 11.763 9.177 12.237 9.47 12.53 C 9.763 12.823 10.237 12.823 10.53 12.53 L 10 12 L 9.47 11.47 Z M 0 6 L 0 6.75 L 16 6.75 L 16 6 L 16 5.25 L 0 5.25 L 0 6 Z M 10 0 L 9.47 0.53 L 15.47 6.53 L 16 6 L 16.53 5.47 L 10.53 -0.53 L 10 0 Z M 16 6 L 15.47 5.47 L 9.47 11.47 L 10 12 L 10.53 12.53 L 16.53 6.53 L 16 6 Z" fill="currentColor" fill-rule="nonzero"></path>
</svg>